<svg width="40" height="40" viewBox="0 0 40 40" fill="none" xmlns="http://www.w3.org/2000/svg">
<path d="M6.81163 10.7949C7.51814 10.0884 8.35689 9.52795 9.27999 9.14558C10.2031 8.76321 11.1925 8.56641 12.1916 8.56641C13.1908 8.56641 14.1802 8.76321 15.1033 9.14558C16.0264 9.52795 16.8651 10.0884 17.5716 10.7949L20 13.2233L22.4283 10.7949C23.8554 9.36807 25.7908 8.56655 27.8089 8.56671C29.8269 8.56686 31.7623 9.36868 33.1891 10.7958C34.616 12.2229 35.4175 14.1583 35.4174 16.1764C35.4172 18.1944 34.6154 20.1297 33.1883 21.5566L30.76 23.9833L30.7816 24.0049L20.0216 34.7666L20 34.7449L19.9783 34.7666L9.2183 24.0049L9.23997 23.9833L6.81163 21.5566C6.10486 20.8501 5.5442 20.0112 5.16168 19.088C4.77916 18.1647 4.58228 17.1751 4.58228 16.1758C4.58228 15.1764 4.77916 14.1868 5.16168 13.2636C5.5442 12.3403 6.10486 11.5015 6.81163 10.7949Z" stroke="black" stroke-width="1.5" stroke-linejoin="round"/>
</svg>
